#!OML:ASF E:/inclinewalkrobotboard/Project1/Captureday1/Session1/subject1.ASF
:FULLY-SPECIFIED
:DEGREES
363
root 0 0 0 -1.3326373814994676 -1.1877858524665774 -3.9409900087229177
lowerback 20.411924347086163 2.736401345444621 -0.4832355779031565
upperback 2.3615394628714155 3.6776480835188208 -0.14081142891554377
thorax -8.86321590223505 1.7885172152811588 -0.5057942902135272
lowerneck -7.728602279866733 -5.987009353176831 -1.075229370735977
upperneck 1.0703330613425734 -8.567192748220444 5.192762265328682
head 2.006537862860384 -3.939276932223428 1.2530190376017516
rclavicle 1.5948759046745372E-15 -6.176703977847935E-16
rhumerus 30.705062669175796 -10.406960926122146 -34.41926970485672
rradius 138.1442042982335
rwrist -15.926872099680553
rhand -19.750344337912907 -29.55228551920024
rfingers 7.125019999999968
rthumb 6.605907954923836 -59.396670071195075
lclavicle -3.955272170853028E-16 -8.715249576700654E-18
lhumerus -47.15719602089825 -6.161969853147853 79.70712504835
lradius 61.912251204165386
lwrist 10.98476806476774
lhand -14.744594637032865 -19.466653655556847
lfingers 7.125019999999857
lthumb 11.330072954858043 10.342145326650254
rfemur -22.593265940613403 4.637783384611605 31.115789716039718
rtibia 54.247743507159825
rfoot -8.457082954274188 -7.394784986782753
rtoes 8.998858998423572
lfemur -13.784111146845053 -0.058445583373120336 -19.769663550710476
ltibia 47.07183950348862
lfoot 4.555126412953761 -11.414628183968755
ltoes 6.273135944474014
364
root 0 0 0 -1.2797227494222922 -1.1236353008451132 -3.9446527180132036
lowerback 20.463212911317108 2.672234153851085 -0.6062351167416029
upperback 2.3955354774055153 3.590011703878007 -0.0536297928936883
thorax -8.85228654639897 1.7490329251755186 -0.3351600885625584
lowerneck -7.4936982935641705 -5.98703079004834 -0.9875387922407686
upperneck 1.4922287069795726 -8.548079599503668 5.06449664739046
head 2.124541461937757 -3.935263634506444 1.1968493292049818
rclavicle 1.7553346450904802E-15 -7.322885006607461E-16
rhumerus 29.785989335049443 -11.077015085000117 -34.928146113600285
rradius 136.55630498548646
rwrist -15.534694757238018
rhand -19.631260369784478 -29.605473933281196
rfingers 7.125019999999967
rthumb 6.7189045500363465 -59.44689268873863
lclavicle -4.657082518294085E-16 -9.677271422754027E-17
lhumerus -47.090698412676794 -6.246693047524513 79.8558017220114
lradius 61.92976192305001
lwrist 10.960270243388985
lhand -14.689795131154433 -19.537919792658133
lfingers 7.125019999999859
lthumb 11.382983883400824 10.25103090588831
rfemur -23.6044247332926 3.9413128630598457 30.642970102802778
rtibia 57.666386442612286
rfoot -7.355850824264301 -6.671343098430658
rtoes 10.18172960028565
lfemur -12.951847467099123 0.2926441734491192 -18.955857508869215
ltibia 50.80491914679247
lfoot 4.8528985677072605 -12.011591660490808
ltoes 2.801210461692449
365
root 0 0 0 -1.233860640440517 -1.0722990413967983 -3.9550384874929545
lowerback 20.482187136648896 2.6318917946414766 -0.68075267351759
upperback 2.390254091949281 3.5358811806158954 -0.003500875872420095
thorax -8.866944788570168 1.72397607265738 -0.23497153644460736
lowerneck -7.349432890120449 -5.985125354023678 -0.9229428247875056
upperneck 1.6768229897526634 -8.534677909654159 4.982281523428263
head 2.1738766233939515 -3.9322624924540817 1.1605086236791606
rclavicle 1.5627665300049678E-15 -6.734978833827021E-16
rhumerus 29.828005477744362 -11.314283878158736 -34.51719831277121
rradius 136.62595643670988
rwrist -16.390905549237278
rhand -19.497699220712946 -29.982773922247894
rfingers 7.125019999999967
rthumb 6.846081451192448 -59.81577182219246
lclavicle -6.539501092624574E-16 -4.19268289669051E-17
lhumerus -47.000349961453814 -6.364444270979543 80.0588036771676
lradius 61.96478488504229
lwrist 10.917992586725138
lhand -14.609338089175578 -19.68257696291547
lfingers 7.1250199999998625
lthumb 11.461622750730871 10.076735062693256
rfemur -23.751707540911426 3.645510982697729 30.462992381563794
rtibia 58.9109503419686
rfoot -6.962440869398714 -6.173758002368187
rtoes 11.135360418187208
lfemur -13.13873608033431 0.9671286192242019 -17.62219218592536
ltibia 55.76413766866496
lfoot 4.339169240767838 -12.034519213702357
ltoes -1.4742492879902969
366
root 0 0 0 -1.2112042942002137 -1.0460555908316687 -3.972251137167387
lowerback 20.45771393701213 2.638705546993565 -0.6721254770727005
upperback 2.317728293569913 3.5468441422191423 -0.019292367789506937
thorax -8.932115263994291 1.728078998198467 -0.25919556185258963
lowerneck -7.3774696581631884 -5.986703308479255 -0.9086938491897985
upperneck 1.4931829014968798 -8.542905614924555 4.993149622982278
head 2.1212308524154624 -3.9353914209037013 1.1632204716830605
rclavicle 9.438093226191119E-16 -4.736857801597703E-16
rhumerus 31.077253032804542 -10.906905597288873 -33.05044989752827
rradius 138.74026568468358
rwrist -18.603053265224343
rhand -19.357021884788058 -30.657513882667953
rfingers 7.125019999999966
rthumb 6.9804394891399895 -60.47654102249914
lclavicle -9.790821141075336E-16 1.480109914625509E-16
lhumerus -46.886881152829915 -6.506491248441673 80.29988313088428
lradius 62.02049736507452
lwrist 10.859765147447789
lhand -14.510216649646075 -19.909436675014668
lfingers 7.125019999999867
lthumb 11.559251138255785 9.814043097490291
rfemur -23.171355196381736 3.8314821729665782 30.666522472916782
rtibia 57.213065833674456
rfoot -7.685066231168824 -6.012332079445298
rtoes 11.766738490262103
lfemur -14.837145844161508 1.9167047712069212 -16.013586137666813
ltibia 60.830426502800265
lfoot 2.8881288067233726 -11.289893747508849
ltoes -5.210343071493142
